<svg id="f4673761-b724-4a95-a095-d2125482816e" data-name="Layer 1" xmlns="http://www.w3.org/2000/svg" width="970" height="796" viewBox="0 0 970 796"><title>hologram</title><circle cx="917" cy="200" r="53" fill="#cccccc" opacity="0.3"/><circle cx="917" cy="200" r="30" fill="#ffc107"/><circle cx="882" cy="53" r="53" fill="#cccccc" opacity="0.3"/><circle cx="882" cy="53" r="30" fill="#ffc107"/><circle cx="53" cy="253" r="53" fill="#cccccc" opacity="0.3"/><circle cx="53" cy="253" r="30" fill="#ffc107"/><circle cx="100" cy="665" r="53" fill="#cccccc" opacity="0.3"/><circle cx="100" cy="665" r="30" fill="#ffc107"/><circle cx="172" cy="100" r="53" fill="#cccccc" opacity="0.3"/><circle cx="172" cy="100" r="30" fill="#ffc107"/><path d="M 983 483 c 0 178.3 -127.9 326.8 -297 358.7 c -0.7 0.1 -1.3 0.3 -2 0.4 q -15.8 2.9 -32 4.4 c -0.7 0.1 -1.3 0.1 -2 0.2 q -15.8 1.4 -32 1.4 c -0.7 0 -1.3 0 -2 0 q -16.2 -0.1 -32 -1.6 c -0.7 -0.1 -1.3 -0.1 -2 -0.2 q -16.2 -1.6 -32 -4.6 c -0.7 -0.1 -1.3 -0.3 -2 -0.4 C 379.9 808.6 253 660.6 253 483 c 0 -201.6 163.4 -365 365 -365 S 983 281.4 983 483 Z" transform="translate(-115,-52)" fill="#3f3d56"/><rect x="570" y="274.5" width="2" height="296.5" fill="#ffc107"/><rect x="570" y="147.4" width="2" height="87.5" fill="#ffc107"/><rect x="433" y="138.3" width="2" height="432.7" fill="#ffc107"/><rect x="467" y="100" width="2" height="97.5" fill="#ffc107"/><rect x="467" y="244" width="2" height="296.6" fill="#ffc107"/><path d="M 584 638.8 V 846.4 c -0.7 -0.1 -1.3 -0.1 -2 -0.2 V 638.8 Z" transform="translate(-115,-52)" fill="#ffc107"/><rect x="501" y="68" width="2" height="275.3" fill="#ffc107"/><path d="M 618 433.5 V 848 c -0.7 0 -1.3 0 -2 0 V 433.5 Z" transform="translate(-115,-52)" fill="#ffc107"/><rect x="535" y="100" width="2" height="382" fill="#ffc107"/><rect x="535" y="523" width="2" height="214.2" fill="#ffc107"/><path d="M 652 834.5 v 11.9 c -0.7 0.1 -1.3 0.1 -2 0.2 V 834.5 Z" transform="translate(-115,-52)" fill="#ffc107"/><path d="M 686 675 V 841.7 c -0.7 0.1 -1.3 0.3 -2 0.4 V 675 Z" transform="translate(-115,-52)" fill="#ffc107"/><path d="M 550 675 V 841.7 c -0.7 -0.1 -1.3 -0.3 -2 -0.4 V 675 Z" transform="translate(-115,-52)" fill="#ffc107"/><rect x="399" y="177" width="2" height="62.4" fill="#ffc107"/><rect x="399" y="286.3" width="2" height="284.7" fill="#ffc107"/><rect x="365" y="200" width="2" height="371" fill="#ffc107"/><rect x="331" y="230" width="2" height="120.9" fill="#ffc107"/><rect x="331" y="391" width="2" height="180" fill="#ffc107"/><rect x="297" y="262" width="2" height="201.5" fill="#ffc107"/><rect x="297" y="501" width="2" height="70" fill="#ffc107"/><rect x="263" y="292" width="2" height="67.6" fill="#ffc107"/><rect x="263" y="403.8" width="2" height="167.2" fill="#ffc107"/><rect x="229" y="308" width="2" height="263" fill="#ffc107"/><rect x="195" y="380" width="2" height="86.9" fill="#ffc107"/><rect x="195" y="506.6" width="2" height="64.4" fill="#ffc107"/><rect x="590.4" y="177" width="1" height="377" fill="#ffc107"/><rect x="637" y="200" width="2" height="59.4" fill="#ffc107"/><rect x="637" y="299.1" width="2" height="271.9" fill="#ffc107"/><rect x="671" y="257" width="2" height="35" fill="#ffc107"/><rect x="671" y="331.3" width="2" height="173.9" fill="#ffc107"/><rect x="671" y="540.6" width="2" height="30.4" fill="#ffc107"/><rect x="705" y="262" width="2" height="309" fill="#ffc107"/><rect x="739" y="292" width="2" height="99" fill="#ffc107"/><rect x="739" y="428.4" width="2" height="142.6" fill="#ffc107"/><rect x="773" y="308" width="2" height="263" fill="#ffc107"/><path d="M 549 676 a 10 10 0 1 1 10 -10 A 10 10 0 0 1 549 676 Z m 0 -18 a 8 8 0 1 0 8 8 A 8 8 0 0 0 549 658 Z" transform="translate(-115,-52)" fill="#ffc107"/><path d="M 583 624 a 10 10 0 1 1 10 -10 A 10 10 0 0 1 583 624 Z m 0 -18 a 8 8 0 1 0 8 8 A 8 8 0 0 0 583 606 Z" transform="translate(-115,-52)" fill="#ffc107"/><path d="M 686 676 a 10 10 0 1 1 10 -10 A 10 10 0 0 1 686 676 Z m 0 -18 a 8 8 0 1 0 8 8 A 8 8 0 0 0 686 658 Z" transform="translate(-115,-52)" fill="#ffc107"/><path d="M 651 801 a 10 10 0 1 0 10 10 A 10 10 0 0 0 651 801 Z m 0 18 a 8 8 0 1 1 8 -8 A 8 8 0 0 1 651 819 Z" transform="translate(-115,-52)" fill="#ffc107"/><path d="M 651 563 a 10 10 0 1 1 10 -10 A 10 10 0 0 1 651 563 Z m 0 -18 a 8 8 0 1 0 8 8 A 8 8 0 0 0 651 545 Z" transform="translate(-115,-52)" fill="#ffc107"/><path d="M 617 424 a 10 10 0 1 1 10 -10 A 10 10 0 0 1 617 424 Z" transform="translate(-115,-52)" fill="#ffc107"/><path d="M 685 315 a 10 10 0 1 1 10 -10 A 10 10 0 0 1 685 315 Z m 0 -18 a 8 8 0 1 0 8 8 A 8 8 0 0 0 685 297 Z" transform="translate(-115,-52)" fill="#ffc107"/><path d="M 447 433 a 10 10 0 1 1 10 -10 A 10 10 0 0 1 447 433 Z m 0 -18 a 8 8 0 1 0 8 8 A 8 8 0 0 0 447 415 Z" transform="translate(-115,-52)" fill="#ffc107"/><path d="M 379 442 a 10 10 0 1 1 10 -10 A 10 10 0 0 1 379 442 Z m 0 -18 a 8 8 0 1 0 8 8 A 8 8 0 0 0 379 424 Z" transform="translate(-115,-52)" fill="#ffc107"/><path d="M 413 544 a 10 10 0 1 1 10 -10 A 10 10 0 0 1 413 544 Z" transform="translate(-115,-52)" fill="#ffc107"/><path d="M 686 200 a 10 10 0 1 1 10 -10 A 10 10 0 0 1 686 200 Z m 0 -18 a 8 8 0 1 0 8 8 A 8 8 0 0 0 686 182 Z" transform="translate(-115,-52)" fill="#ffc107"/><path d="M 515 324 a 10 10 0 1 1 10 -10 A 10 10 0 0 1 515 324 Z m 0 -18 a 8 8 0 1 0 8 8 A 8 8 0 0 0 515 306 Z" transform="translate(-115,-52)" fill="#ffc107"/><path d="M 481 253 a 10 10 0 1 1 10 -10 A 10 10 0 0 1 481 253 Z m 0 -18 a 8 8 0 1 0 8 8 A 8 8 0 0 0 481 235 Z" transform="translate(-115,-52)" fill="#ffc107"/><path d="M 311 549 a 10 10 0 1 1 10 -10 A 10 10 0 0 1 311 549 Z m 0 -18 a 8 8 0 1 0 8 8 A 8 8 0 0 0 311 531 Z" transform="translate(-115,-52)" fill="#ffc107"/><rect x="804" y="380" width="2" height="86.9" fill="#ffc107"/><rect x="804" y="506.6" width="2" height="64.4" fill="#ffc107"/><path d="M 920 549 a 10 10 0 1 1 10 -10 A 10 10 0 0 1 920 549 Z m 0 -18 a 8 8 0 1 0 8 8 A 8 8 0 0 0 920 531 Z" transform="translate(-115,-52)" fill="#ffc107"/><path d="M 855 470 a 10 10 0 1 1 10 -10 A 10 10 0 0 1 855 470 Z m 0 -18 a 8 8 0 1 0 8 8 A 8 8 0 0 0 855 452 Z" transform="translate(-115,-52)" fill="#ffc107"/><path d="M 787 585 a 10 10 0 1 1 10 -10 A 10 10 0 0 1 787 585 Z m 0 -18 a 8 8 0 1 0 8 8 A 8 8 0 0 0 787 567 Z" transform="translate(-115,-52)" fill="#ffc107"/><path d="M 583 283 a 10 10 0 1 1 10 -10 A 10 10 0 0 1 583 283 Z" transform="translate(-115,-52)" fill="#ffc107"/><path d="M 787 374 a 10 10 0 1 1 10 -10 A 10 10 0 0 1 787 374 Z m 0 -18 a 8 8 0 1 0 8 8 A 8 8 0 0 0 787 356 Z" transform="translate(-115,-52)" fill="#ffc107"/><path d="M 855 345 a 10 10 0 1 1 10 -10 A 10 10 0 0 1 855 345 Z" transform="translate(-115,-52)" fill="#ffc107"/><path d="M 753 340 a 10 10 0 1 1 10 -10 A 10 10 0 0 1 753 340 Z" transform="translate(-115,-52)" fill="#ffc107"/><polygon points="919,288 740,285 740,283 917,286 917,200 919,200 919,288" fill="rgb(110, 109, 116)"/><polygon points="639.9,279.4 638.1,278.6 732.3,53 883,53 883,55 733.7,55 639.9,279.4" fill="rgb(110, 109, 116)"/><polygon points="503,363 52,363 52,254 54,254 54,361 503,361 503,363" fill="rgb(110, 109, 116)"/><polygon points="468,222 169,222 169,100 171,100 171,220 468,220 468,222" fill="rgb(110, 109, 116)"/><polygon points="299,666 100,666 100,664 297,664 297,481 299,481 299,666" fill="rgb(110, 109, 116)"/></svg>